<mxfile host="app.diagrams.net" modified="2021-06-23T17:59:06.772Z" agent="5.0 (Macintosh; Intel Mac OS X 10_15_7) AppleWebKit/537.36 (KHTML, like Gecko) Chrome/91.0.4472.106 Safari/537.36" etag="rpFQCq1_aCOlqtM7EKJM" version="14.7.7" type="github">
  <diagram id="ADKUT4NBS_e24XYnQOhU" name="Page-1">
    <mxGraphModel dx="957" dy="439" grid="1" gridSize="10" guides="1" tooltips="1" connect="1" arrows="1" fold="1" page="1" pageScale="1" pageWidth="827" pageHeight="1169" math="0" shadow="0">
      <root>
        <mxCell id="0" />
        <mxCell id="1" parent="0" />
        <mxCell id="j8-CKSeDnxzDxr_8pUOI-11" value="" style="edgeStyle=orthogonalEdgeStyle;rounded=0;orthogonalLoop=1;jettySize=auto;html=1;" edge="1" parent="1" source="j8-CKSeDnxzDxr_8pUOI-1" target="j8-CKSeDnxzDxr_8pUOI-10">
          <mxGeometry relative="1" as="geometry" />
        </mxCell>
        <mxCell id="j8-CKSeDnxzDxr_8pUOI-1" value="Admin/console" style="rounded=1;whiteSpace=wrap;html=1;" vertex="1" parent="1">
          <mxGeometry x="280" y="40" width="120" height="60" as="geometry" />
        </mxCell>
        <mxCell id="j8-CKSeDnxzDxr_8pUOI-9" value="" style="edgeStyle=orthogonalEdgeStyle;rounded=0;orthogonalLoop=1;jettySize=auto;html=1;" edge="1" parent="1" source="j8-CKSeDnxzDxr_8pUOI-2" target="j8-CKSeDnxzDxr_8pUOI-8">
          <mxGeometry relative="1" as="geometry" />
        </mxCell>
        <mxCell id="j8-CKSeDnxzDxr_8pUOI-2" value="design system&lt;br&gt;web components" style="rounded=1;whiteSpace=wrap;html=1;" vertex="1" parent="1">
          <mxGeometry x="120" y="40" width="120" height="60" as="geometry" />
        </mxCell>
        <mxCell id="j8-CKSeDnxzDxr_8pUOI-24" value="" style="edgeStyle=orthogonalEdgeStyle;rounded=0;orthogonalLoop=1;jettySize=auto;html=1;" edge="1" parent="1" source="j8-CKSeDnxzDxr_8pUOI-3" target="j8-CKSeDnxzDxr_8pUOI-23">
          <mxGeometry relative="1" as="geometry" />
        </mxCell>
        <mxCell id="j8-CKSeDnxzDxr_8pUOI-3" value="OTT&lt;br&gt;react/next" style="rounded=1;whiteSpace=wrap;html=1;" vertex="1" parent="1">
          <mxGeometry x="440" y="40" width="120" height="60" as="geometry" />
        </mxCell>
        <mxCell id="j8-CKSeDnxzDxr_8pUOI-26" value="" style="edgeStyle=orthogonalEdgeStyle;rounded=0;orthogonalLoop=1;jettySize=auto;html=1;" edge="1" parent="1" source="j8-CKSeDnxzDxr_8pUOI-4" target="j8-CKSeDnxzDxr_8pUOI-25">
          <mxGeometry relative="1" as="geometry" />
        </mxCell>
        <mxCell id="j8-CKSeDnxzDxr_8pUOI-4" value="Lives&lt;br&gt;react/next" style="rounded=1;whiteSpace=wrap;html=1;" vertex="1" parent="1">
          <mxGeometry x="600" y="40" width="120" height="60" as="geometry" />
        </mxCell>
        <mxCell id="j8-CKSeDnxzDxr_8pUOI-5" value="Nova arq front" style="text;html=1;strokeColor=none;fillColor=none;align=center;verticalAlign=middle;whiteSpace=wrap;rounded=0;" vertex="1" parent="1">
          <mxGeometry x="463.5" y="10" width="70" height="20" as="geometry" />
        </mxCell>
        <mxCell id="j8-CKSeDnxzDxr_8pUOI-8" value="Thiago" style="rounded=1;whiteSpace=wrap;html=1;" vertex="1" parent="1">
          <mxGeometry x="120" y="120" width="120" height="60" as="geometry" />
        </mxCell>
        <mxCell id="j8-CKSeDnxzDxr_8pUOI-10" value="Pedro" style="rounded=1;whiteSpace=wrap;html=1;" vertex="1" parent="1">
          <mxGeometry x="280" y="120" width="120" height="60" as="geometry" />
        </mxCell>
        <mxCell id="j8-CKSeDnxzDxr_8pUOI-12" value="OTT&lt;br&gt;Live front" style="rounded=1;whiteSpace=wrap;html=1;" vertex="1" parent="1">
          <mxGeometry x="540.5" y="280" width="120" height="60" as="geometry" />
        </mxCell>
        <mxCell id="j8-CKSeDnxzDxr_8pUOI-15" value="" style="edgeStyle=orthogonalEdgeStyle;rounded=0;orthogonalLoop=1;jettySize=auto;html=1;" edge="1" parent="1" source="j8-CKSeDnxzDxr_8pUOI-13" target="j8-CKSeDnxzDxr_8pUOI-12">
          <mxGeometry relative="1" as="geometry">
            <Array as="points">
              <mxPoint x="490" y="310" />
              <mxPoint x="490" y="310" />
            </Array>
          </mxGeometry>
        </mxCell>
        <mxCell id="j8-CKSeDnxzDxr_8pUOI-19" value="" style="edgeStyle=orthogonalEdgeStyle;rounded=0;orthogonalLoop=1;jettySize=auto;html=1;" edge="1" parent="1" source="j8-CKSeDnxzDxr_8pUOI-13" target="j8-CKSeDnxzDxr_8pUOI-18">
          <mxGeometry relative="1" as="geometry" />
        </mxCell>
        <mxCell id="j8-CKSeDnxzDxr_8pUOI-13" value="Backend" style="rounded=1;whiteSpace=wrap;html=1;" vertex="1" parent="1">
          <mxGeometry x="317" y="280" width="120" height="60" as="geometry" />
        </mxCell>
        <mxCell id="j8-CKSeDnxzDxr_8pUOI-16" value="Modelo Interface" style="text;html=1;strokeColor=none;fillColor=none;align=center;verticalAlign=middle;whiteSpace=wrap;rounded=0;" vertex="1" parent="1">
          <mxGeometry x="463.5" y="280" width="40" height="20" as="geometry" />
        </mxCell>
        <mxCell id="j8-CKSeDnxzDxr_8pUOI-20" value="" style="edgeStyle=orthogonalEdgeStyle;rounded=0;orthogonalLoop=1;jettySize=auto;html=1;" edge="1" parent="1" source="j8-CKSeDnxzDxr_8pUOI-18" target="j8-CKSeDnxzDxr_8pUOI-13">
          <mxGeometry relative="1" as="geometry">
            <Array as="points">
              <mxPoint x="287" y="300" />
              <mxPoint x="287" y="300" />
            </Array>
          </mxGeometry>
        </mxCell>
        <mxCell id="j8-CKSeDnxzDxr_8pUOI-18" value="Nova&lt;br&gt;arq." style="rhombus;whiteSpace=wrap;html=1;rounded=1;" vertex="1" parent="1">
          <mxGeometry x="150" y="270" width="80" height="80" as="geometry" />
        </mxCell>
        <mxCell id="j8-CKSeDnxzDxr_8pUOI-21" value="Perfomance" style="text;html=1;strokeColor=none;fillColor=none;align=center;verticalAlign=middle;whiteSpace=wrap;rounded=0;" vertex="1" parent="1">
          <mxGeometry x="250" y="270" width="40" height="20" as="geometry" />
        </mxCell>
        <mxCell id="j8-CKSeDnxzDxr_8pUOI-22" value="Nova arq front" style="text;html=1;strokeColor=none;fillColor=none;align=center;verticalAlign=middle;whiteSpace=wrap;rounded=0;" vertex="1" parent="1">
          <mxGeometry x="620" y="10" width="70" height="20" as="geometry" />
        </mxCell>
        <mxCell id="j8-CKSeDnxzDxr_8pUOI-23" value="Gabriel" style="rounded=1;whiteSpace=wrap;html=1;" vertex="1" parent="1">
          <mxGeometry x="440" y="120" width="120" height="60" as="geometry" />
        </mxCell>
        <mxCell id="j8-CKSeDnxzDxr_8pUOI-25" value="Matheus" style="rounded=1;whiteSpace=wrap;html=1;" vertex="1" parent="1">
          <mxGeometry x="600" y="120" width="120" height="60" as="geometry" />
        </mxCell>
        <mxCell id="j8-CKSeDnxzDxr_8pUOI-29" value="nova arq&lt;br&gt;next" style="rhombus;whiteSpace=wrap;html=1;rounded=1;" vertex="1" parent="1">
          <mxGeometry x="540.5" y="110" width="80" height="80" as="geometry" />
        </mxCell>
      </root>
    </mxGraphModel>
  </diagram>
</mxfile>
